PathFileType	4	(X/Y/Z)	C:/Users/beibeiliu/ov580/test_trc/User3\sequence.16_training_dense_left.trc
DataRate	CameraRate	NumFrames	NumMarkers	Units	OrigDataRate	OrigDataStartFrame	OrigNumFrames
120	120	23	19	mm	120	200	266
Frame#	Time	ThumbCMC			ThumbMCP			ThumbIP			ThumbTip			IndexMCP			IndexPIP			IndexTip			MiddleMCP			MiddlePIP			MiddleTip			RingMCP			RingPIP			RingTip			PinkyMCP			PinkyPIP			PinkyTip			BackHand1			BackHand2			BackHand3	
		X0	Y0	Z0	X1	Y1	Z1	X2	Y2	Z2	X3	Y3	Z3	X4	Y4	Z4	X5	Y5	Z5	X6	Y6	Z6	X7	Y7	Z7	X8	Y8	Z8	X9	Y9	Z9	X10	Y10	Z10	X11	Y11	Z11	X12	Y12	Z12	X13	Y13	Z13	X14	Y14	Z14	X15	Y15	Z15	X16	Y16	Z16	X17	Y17	Z17	X18	Y18	Z18	
199	1.65833	-145.43	-35.4273	42.1532	-121.401	-31.1302	20.634	-102.037	-24.2573	-4.41331	-101.28	-21.9789	-26.4735	-120.254	17.5999	-8.96463	-97.9123	11.2455	-29.5928	-86.2057	-17.4691	-38.9353	-129.054	9.89561	-27.2799	-115.018	-13.5273	-42.2973	-127.328	-43.989	-20.7579	-147.303	-5.4205	-33.8673	-134.415	-32.4141	-41.2401	-145.366	-50.0575	-13.774	-164.14	-15.9642	-42.1546	-149.778	-35.9326	-43.722	-156.62	-53.4413	-19.5001	-183.177	-0.819511	8.98264	-203.416	-18.6359	29.1259	-166.055	-4.75401	41.3566	
200	1.66667	-145.788	-33.6948	41.4738	-122.291	-30.3694	19.5014	-103.268	-25.1977	-4.83409	-105.793	-21.9074	-29.7123	-123.482	16.7136	-14.3766	-100.529	10.7878	-32.4969	-87.5909	-19.5678	-40.5972	-137.976	5.8505	-30.6451	-114.431	-20.7744	-42.9322	-131.432	-46.1092	-20.3699	-150.352	-8.17379	-34.0721	-137.413	-35.7403	-44.2002	-145.351	-51.888	-13.3783	-168.09	-18.7271	-40.1935	-152.102	-41.2624	-43.828	-158.95	-56.7085	-15.9806	-190.509	-5.50866	6.40608	-207.587	-21.3308	26.5399	-175.297	-8.17984	38.0364	
201	1.675	-146.291	-33.3648	40.8027	-120.68	-33.6542	22.1892	-106.48	-27.7063	-2.97388	-104.561	-25.9213	-29.6164	-128.201	12.2327	-16.724	-103.38	4.47208	-40.1729	-92.3658	-20.9782	-44.376	-136.372	2.88435	-33.3658	-118.933	-26.2379	-44.7736	-132.967	-50.3177	-20.011	-153.832	-14.5968	-42.5119	-142.076	-44.0352	-43.6121	-151.952	-55.1174	-12.2945	-170.684	-23.8678	-44.9032	-154.515	-49.4812	-43.8873	-162.09	-57.7906	-17.4228	-191.198	-5.03165	0.838655	-207.752	-22.3179	27.62	-176.424	-7.95626	36.584	
202	1.68333	-149.567	-36.5976	42.1669	-127.193	-32.0266	16.3638	-109.007	-29.1991	-6.26189	-102.736	-29.805	-31.5403	-128.04	8.92196	-17.2191	-103.134	1.72138	-42.3338	-95.7715	-26.3774	-48.7286	-138.387	-2.39641	-35.1629	-118.918	-32.302	-46.3304	-136.896	-54.5812	-22.6023	-152.582	-17.9343	-41.1935	-140.537	-45.4353	-45.3871	-151.4	-58.0398	-15.4684	-169.743	-29.362	-46.7269	-157.495	-51.2723	-46.8124	-164.411	-62.0808	-17.3932	-190.113	-7.46203	-0.648058	-207.907	-20.0501	24.7503	-174.428	-8.2495	29.5675	
203	1.69167	-148.451	-34.7073	38.6649	-123.504	-34.8088	15.6257	-106.096	-32.7915	-8.18156	-105.804	-33.7759	-31.5584	-130.375	4.38348	-23.9352	-105.648	-1.74458	-44.7166	-97.5188	-33.0155	-52.0487	-140.871	-8.9187	-39.0899	-121.889	-37.3308	-48.76	-136.512	-57.6524	-19.2857	-158.297	-25.4765	-45.0543	-144.551	-55.2026	-42.3279	-158.616	-61.8522	-12.3165	-175.406	-33.1983	-45.4108	-159.387	-58.0248	-44.246	-166.185	-63.4745	-17.9863	-193.697	-10.4956	-5.33622	-213.289	-22.5773	21.0219	-172.831	-9.15157	28.8988	
204	1.7	-152.893	-34.1287	35.3953	-126.072	-35.2702	15.2162	-111.451	-37.2542	-6.53422	-104.926	-38.7767	-35.092	-127.358	-0.364643	-31.059	-110.974	-14.126	-53.8	-101.061	-45.3268	-53.1999	-145.171	-16.6922	-45.9458	-127.55	-43.9431	-53.5858	-143.667	-62.8893	-22.2143	-158.847	-31.4267	-46.1196	-148.461	-62.1539	-42.1422	-159.847	-66.3057	-14.3274	-178.682	-40.3039	-47.5893	-163.634	-64.93	-44.0959	-172.141	-69.0823	-15.2106	-193.859	-12.4461	-5.14815	-210.189	-22.2369	20.5993	-177.092	-9.1077	25.3748	
205	1.70833	-149.752	-30.8821	34.2019	-128.013	-36.8669	15.967	-110.577	-38.6543	-11.9492	-102.384	-45.4886	-33.5145	-134.022	-9.85105	-36.1117	-110.004	-26.0691	-56.4454	-104.255	-56.4998	-53.3524	-145.391	-25.5184	-49.3927	-131.907	-56.6505	-53.8287	-145.9	-67.5048	-17.0088	-162.651	-44.8815	-51.7761	-152.385	-72.5073	-40.618	-157.776	-69.5775	-10.403	-176.515	-52.2442	-49.4856	-165.738	-74.5279	-39.1167	-169.277	-71.3581	-10.7368	-196.897	-15.4455	-10.4022	-215.623	-25.3149	15.4017	-179.982	-10.0767	18.5579	
206	1.71667	-151.471	-28.252	28.6415	-128.747	-36.7833	11.665	-112.042	-44.0844	-12.034	-101.619	-54.6397	-35.9064	-138.691	-24.5117	-45.5861	-113.971	-46.1177	-59.9113	-105.464	-72.3092	-47.2102	-146.818	-41.6083	-52.9013	-134.67	-71.7571	-48.8406	-143.421	-72.25	-11.3148	-166.364	-57.6233	-48.858	-151.117	-82.3841	-34.4485	-162.563	-71.3914	-3.35975	-182.178	-65.9508	-43.3449	-165.071	-84.2694	-28.9755	-170.499	-70.0251	-0.702149	-198.033	-22.9373	-15.5084	-217.252	-26.6448	14.1265	-177.638	-10.7014	10.3935	
207	1.725	-154.414	-25.348	27.7477	-128.636	-36.3189	11.7429	-109.54	-45.8943	-11.4812	-99.6847	-60.1039	-29.0745	-137.815	-34.8453	-48.627	-116.194	-55.5682	-57.5247	-106.068	-79.3352	-41.8864	-149.14	-54.2278	-52.3241	-132.512	-80.1545	-43.3193	-143.8	-76.8453	-4.10612	-161.855	-66.9587	-44.1145	-152.77	-90.565	-27.4835	-157.62	-75.6083	1.33808	-181.174	-81.3629	-37.713	-165.015	-93.7023	-18.1764	-173.924	-73.8835	5.37479	-199.954	-31.2684	-16.3862	-216.501	-28.1544	9.49632	-182.945	-13.0299	8.44857	
208	1.73333	-155.438	-23.554	28.4574	-130.775	-36.076	10.7538	-107.336	-48.0796	-7.02469	-99.111	-67.3272	-25.5826	-138.915	-43.3393	-47.1456	-112.608	-63.362	-53.4536	-102.866	-84.6248	-35.5815	-149.677	-60.4727	-48.9245	-128.75	-84.5034	-35.8594	-142.399	-78.912	3.08932	-164.503	-76.5191	-39.8996	-145.527	-91.7429	-16.8464	-156.532	-74.7678	9.33176	-175.418	-84.806	-32.2872	-160.06	-93.7781	-9.09698	-167.549	-77.7966	9.8469	-201.094	-37.7373	-15.2344	-217.999	-33.0084	10.0857	-185.391	-16.4194	3.9177	
209	1.74167	-155.625	-22.3537	27.4266	-129.379	-34.3094	16.2429	-105.834	-49.7565	-4.82771	-98.8145	-68.1761	-17.6765	-136.559	-44.1666	-42.85	-112.355	-67.6304	-48.1532	-99.9088	-88.5112	-28.2365	-147.07	-66.4341	-45.7571	-124.605	-89.0849	-29.6691	-132.19	-79.2456	8.63641	-158.52	-77.6688	-35.6492	-140.472	-94.7013	-14.2534	-151.54	-75.6438	14.3634	-173.477	-91.4553	-26.144	-157.871	-98.7687	-3.51481	-165.559	-75.3294	15.9493	-200.579	-42.2595	-17.0818	-213.056	-33.9664	6.19177	-186.671	-16.609	2.58105	
210	1.75	-155.606	-19.4587	23.1997	-128.815	-32.687	16.1845	-107.189	-47.8692	0.0298137	-95.9885	-68.9981	-13.4013	-130.537	-46.1574	-43.6013	-105.275	-67.5562	-43.6819	-95.4405	-85.3498	-24.3773	-141.431	-68.88	-42.802	-119.707	-85.8597	-28.7375	-129.373	-80.5583	13.4666	-155.556	-83.3209	-30.744	-136.472	-93.6443	-10.793	-145.923	-77.2683	17.5975	-171.038	-94.7005	-22.7503	-151.988	-99.2481	0.460846	-157.636	-77.2155	19.8691	-200.128	-43.3836	-15.3974	-216.951	-38.1161	11.1143	-183.993	-18.1844	-1.43484	
211	1.75833	-159.086	-18.4103	24.0384	-128.823	-30.8407	14.3053	-103.485	-45.3254	3.18861	-97.0956	-66.1297	-4.52806	-129.546	-47.6702	-42.143	-106.84	-67.1318	-40.67	-90.7357	-83.3299	-16.4751	-141.465	-70.6001	-39.3254	-116.17	-85.3823	-24.945	-122.816	-80.1275	17.0618	-149.708	-86.7033	-27.3154	-131.613	-94.3664	-3.16431	-142.43	-75.0382	23.319	-162.902	-96.4924	-18.2017	-146.793	-99.1909	1.92271	-149.851	-79.7893	23.8841	-199.815	-51.7575	-16.5238	-215.884	-43.2398	7.99395	-185.817	-16.8447	-2.70484	
212	1.76667	-157.075	-12.1427	23.3517	-126.506	-22.5332	19.6444	-103.628	-42.535	6.11863	-96.4287	-64.8724	0.526206	-129.687	-48.7913	-38.8923	-103.959	-64.644	-37.6695	-86.4606	-76.0366	-13.5187	-137.664	-66.2005	-35.5272	-113.87	-85.8169	-19.0609	-114.226	-75.5993	19.5179	-148.024	-83.8548	-24.2329	-126.86	-91.2242	0.366875	-134.692	-77.0904	25.1248	-163.466	-93.7499	-13.6292	-141.471	-99.113	5.33854	-146.966	-82.874	28.743	-198.944	-55.0323	-12.0277	-217.817	-44.2961	10.8873	-187.921	-24.193	-1.94619	
213	1.775	-163.347	-12.9179	23.9116	-126.791	-19.7434	20.3896	-105.592	-39.0091	8.50224	-92.2823	-63.519	1.53367	-128.262	-51.0544	-37.0041	-101.081	-62.4128	-33.5643	-86.8582	-73.0839	-11.2107	-131.619	-70.8571	-31.7202	-108.608	-80.8753	-16.4113	-110.415	-74.9022	22.2707	-145.381	-84.4872	-19.8875	-122.272	-89.8951	2.695	-127.652	-73.7472	28.5149	-156.886	-94.3231	-8.86419	-135.186	-95.4632	9.07131	-138.732	-78.0955	34.5389	-196.952	-58.0702	-10.6039	-215.279	-47.4902	12.213	-188.645	-20.8332	-0.325316	
214	1.78333	-163.551	-9.69929	23.1493	-128.563	-19.0194	18.3853	-104.774	-35.8573	10.9018	-93.4112	-55.8231	8.68977	-126.407	-48.4166	-34.436	-100.528	-61.6381	-28.4772	-81.4742	-65.4433	-3.06862	-131.924	-67.068	-28.2313	-101.811	-74.0792	-8.5336	-105.401	-64.6919	28.1171	-142.275	-84.0506	-14.8954	-119.743	-89.1957	5.08284	-126.331	-70.5841	34.4123	-153.529	-94.5612	-4.38914	-131.258	-94.1867	15.6358	-134.821	-75.2604	39.6392	-193.676	-57.5481	-11.329	-213.044	-46.6607	12.3539	-190.856	-23.5821	-3.02166	
215	1.79167	-163.834	-10.0672	23.1348	-130.618	-14.8291	20.9718	-104.632	-30.2303	14.7881	-92.4126	-49.1584	13.3362	-128.828	-45.5304	-28.689	-99.1209	-57.852	-24.9592	-81.3436	-60.9072	-1.01339	-127.079	-68.2124	-23.459	-101.509	-71.673	-7.34009	-103.703	-60.3075	33.7259	-134.151	-81.2697	-11.8626	-117.076	-86.5614	10.6118	-119.311	-67.3526	36.9504	-148.487	-94.929	0.224999	-128.372	-92.6803	17.109	-129.578	-72.26	41.8859	-191.41	-59.5083	-6.9669	-213.957	-44.8452	12.3681	-188.381	-23.4742	-4.44108	
216	1.8	-168.877	-5.97395	26.5849	-131.402	-12.5596	22.3076	-105.757	-22.9491	18.5361	-91.6304	-45.36	14.7637	-125.297	-42.2549	-26.6246	-93.5928	-53.7118	-18.0318	-77.6423	-53.9377	4.38326	-125.771	-60.1271	-21.8953	-96.2605	-66.3839	-1.28084	-103.618	-57.8989	36.2174	-135.981	-76.5005	-8.53555	-113.618	-80.9399	14.7274	-117.852	-61.6964	41.6189	-145.077	-89.1823	1.40569	-125.79	-89.1393	19.7596	-126.721	-68.1674	43.3231	-188.878	-55.2402	-8.00973	-211.668	-49.527	12.2814	-188.705	-23.2972	-1.90289	
217	1.80833	-166.816	-2.38688	24.1442	-133.549	-7.71044	23.2814	-108.931	-16.9454	21.3372	-93.2841	-37.8074	17.9714	-122.762	-38.9132	-24.4316	-95.934	-47.651	-17.8027	-76.5993	-44.4906	7.81174	-120.153	-59.6992	-19.1754	-95.3473	-60.9313	0.136769	-100.537	-51.1244	37.7429	-129.885	-74.389	-5.14238	-111.318	-77.5974	16.579	-116.16	-55.4931	44.529	-144.766	-86.2773	5.91055	-123.83	-87.3107	25.3958	-127.954	-63.6862	46.5713	-187.8	-55.9165	-6.78117	-211.639	-49.3244	14.574	-189.826	-23.8797	-1.3815	
218	1.81667	-171.142	-1.99698	23.4236	-139.394	-1.92799	24.0907	-110.67	-11.2488	18.8608	-91.4943	-29.0833	18.6868	-124.85	-36.2165	-22.3495	-95.7499	-42.0282	-15.5035	-76.4079	-36.0528	9.94945	-120.114	-57.5681	-17.0506	-95.7172	-56.8223	1.89891	-101.176	-43.2261	40.2089	-130.615	-71.6814	-3.12575	-106.005	-68.5383	18.9901	-113.951	-54.0746	44.6966	-142.658	-85.4615	9.76951	-118.812	-77.1148	26.6336	-124.872	-57.3243	49.1272	-186.93	-57.6484	-3.96237	-211.546	-53.6084	13.4719	-194.26	-24.9924	-1.25144	
219	1.825	-176.195	-1.34649	21.7974	-143.078	4.28856	21.1713	-111.308	-4.77735	14.7532	-94.9698	-18.8031	18.3698	-125.411	-32.1582	-23.1864	-94.6746	-35.816	-15.3083	-76.7159	-25.1838	12.841	-120.701	-51.7324	-15.3856	-93.5924	-50.5587	3.05757	-99.0541	-36.2093	39.5924	-123.09	-67.3911	-1.16277	-103.611	-61.129	16.9193	-112.096	-44.5027	46.9452	-136.265	-77.5306	10.9885	-116.063	-74.0266	29.7676	-122.628	-52.2548	47.6701	-183.145	-60.1601	-1.25861	-209.873	-54.344	12.9021	-192.024	-28.4259	-2.63334	
220	1.83333	-182.053	1.92533	17.3312	-149.348	9.8127	15.089	-118.317	8.17718	11.8323	-97.7936	-9.33959	13.0545	-125.977	-28.285	-24.5783	-93.7381	-23.3725	-16.6793	-79.3887	-11.8616	5.44016	-120.638	-43.5672	-17.6462	-91.3377	-35.5751	0.307967	-99.873	-20.0688	37.6264	-119.742	-61.4204	-1.67235	-101.425	-53.917	18.6786	-110.753	-35.2165	43.4536	-127.268	-74.8101	13.6937	-110.994	-63.6266	29.4617	-122.386	-40.0033	47.2913	-179.086	-64.0062	0.00203507	-204.542	-55.8658	13.9402	-192.7	-28.6737	-5.53413	
221	1.84167	-187.59	3.1475	11.9451	-153.912	13.7417	7.35796	-122.425	12.6589	2.94809	-100.345	0.389052	6.1539	-128.92	-25.8173	-27.8175	-98.5581	-17.2927	-22.9224	-84.3856	-1.50674	1.63396	-119.55	-39.623	-21.716	-92.259	-29.4734	-2.01098	-102.527	-11.5753	33.2369	-120.465	-53.7595	-4.57591	-100.132	-42.932	16.1877	-113.829	-24.7551	42.1169	-125.456	-66.1066	11.3587	-108.431	-54.4028	28.4487	-121.28	-33.4463	47.6833	-176.667	-61.8468	-0.825225	-207.813	-62.0195	17.4273	-194.251	-30.4764	-8.68	
